<svg xmlns="http://www.w3.org/2000/svg" viewBox="0 0 48 60" x="0px" y="0px"><title>Ui vol.1</title><g data-name="Layer 25"><path d="M4.61914,45.69922A3.54343,3.54343,0,0,0,7.29248,46.916H40.707a3.54477,3.54477,0,0,0,3.51172-4.03321L40.47168,15.8623A3.56075,3.56075,0,0,0,36.96,12.8042H11.04a3.56088,3.56088,0,0,0-3.51221,3.05859l-3.74707,27.02A3.54577,3.54577,0,0,0,4.61914,45.69922Zm1.14307-2.541L9.50928,16.1377A1.5521,1.5521,0,0,1,11.04,14.8042H36.96a1.55222,1.55222,0,0,1,1.53125,1.333l3.74707,27.021A1.54625,1.54625,0,0,1,40.707,44.916H7.29248A1.545,1.545,0,0,1,5.76221,43.1582Z"/><path d="M30.97266,10.543a.99974.99974,0,0,0,1-1V9.05762a7.9729,7.9729,0,1,0-15.9458,0V9.543a1,1,0,0,0,2,0V9.05762a5.9729,5.9729,0,1,1,11.9458,0V9.543A.99974.99974,0,0,0,30.97266,10.543Z"/></g><text x="0" y="63" fill="#000000" font-size="5px" font-weight="bold" font-family="'Helvetica Neue', Helvetica, Arial-Unicode, Arial, Sans-serif">Created by BlackActurus</text><text x="0" y="68" fill="#000000" font-size="5px" font-weight="bold" font-family="'Helvetica Neue', Helvetica, Arial-Unicode, Arial, Sans-serif">from the Noun Project</text></svg>